<?xml version="1.0" standalone="no"?><!DOCTYPE svg PUBLIC "-//W3C//DTD SVG 1.1//EN" "http://www.w3.org/Graphics/SVG/1.1/DTD/svg11.dtd"><svg t="1640353435446" class="icon" viewBox="0 0 1024 1024" version="1.1" xmlns="http://www.w3.org/2000/svg" p-id="6908" xmlns:xlink="http://www.w3.org/1999/xlink" width="200" height="200"><defs><style type="text/css"></style></defs><path d="M512 93.090909c231.354182 0 418.909091 187.554909 418.909091 418.909091s-187.554909 418.909091-418.909091 418.909091S93.090909 743.354182 93.090909 512 280.645818 93.090909 512 93.090909z m11.636364 232.727273a41.658182 41.658182 0 0 0-41.658182 41.658182v114.501818h-114.501818a41.658182 41.658182 0 0 0 0 83.316363l114.501818-0.023272v114.548363a41.658182 41.658182 0 0 0 83.316363 0l-0.023272-114.548363h114.548363a41.658182 41.658182 0 0 0 0-83.269818l-114.548363-0.023273v-114.501818A41.658182 41.658182 0 0 0 523.636364 325.818182z" p-id="6909" fill="#1296db"></path></svg>