<?xml version="1.0" standalone="no"?><!DOCTYPE svg PUBLIC "-//W3C//DTD SVG 1.1//EN" "http://www.w3.org/Graphics/SVG/1.1/DTD/svg11.dtd"><svg t="1640353499982" class="icon" viewBox="0 0 1024 1024" version="1.1" xmlns="http://www.w3.org/2000/svg" p-id="7447" xmlns:xlink="http://www.w3.org/1999/xlink" width="200" height="200"><defs><style type="text/css"></style></defs><path d="M438.852267 438.852267H292.5568a73.147733 73.147733 0 1 0 0 146.295466h146.295467v146.295467a73.147733 73.147733 0 1 0 146.295466 0v-146.295467h146.295467a73.147733 73.147733 0 1 0 0-146.295466h-146.295467V292.5568a73.147733 73.147733 0 1 0-146.295466 0v146.295467zM512 1024C229.239467 1024 0 794.760533 0 512 0 229.239467 229.239467 0 512 0c282.760533 0 512 229.239467 512 512 0 282.760533-229.239467 512-512 512z" p-id="7448" fill="#1296db"></path></svg>