<?xml version="1.0" standalone="no"?><!DOCTYPE svg PUBLIC "-//W3C//DTD SVG 1.1//EN" "http://www.w3.org/Graphics/SVG/1.1/DTD/svg11.dtd"><svg t="1640353826266" class="icon" viewBox="0 0 1024 1024" version="1.1" xmlns="http://www.w3.org/2000/svg" p-id="9203" xmlns:xlink="http://www.w3.org/1999/xlink" width="200" height="200"><defs><style type="text/css"></style></defs><path d="M310.272 601.088c-15.9744 0-28.8768 12.6976-29.2864 28.672-0.4096 16.384 13.5168 29.9008 30.1056 29.9008h115.5072c16.384 0 30.5152-13.5168 30.1056-29.9008-0.4096-15.9744-13.312-28.672-29.2864-28.672h-117.1456z m234.0864-116.9408c0-16.1792-13.1072-29.2864-29.2864-29.2864h-204.1856c-16.384 0-30.5152 13.5168-30.1056 29.9008 0.4096 15.9744 13.312 28.672 29.2864 28.672h204.8c16.384 0 29.4912-13.1072 29.4912-29.2864z m-234.0864-114.2784H602.112c16.384 0 30.5152-13.5168 30.1056-29.9008-0.4096-15.9744-13.312-28.672-29.2864-28.672H310.8864c-16.384 0-30.5152 13.5168-30.1056 29.9008 0.4096 15.7696 13.5168 28.672 29.4912 28.672z m0 0" p-id="9204" fill="#1296db"></path><path d="M732.3648 107.7248H270.1312c-98.304 3.6864-106.0864 99.5328-106.2912 110.3872v598.6304c4.5056 92.16 82.3296 103.424 114.688 103.424h207.4624c16.384 0 30.5152-13.5168 30.1056-29.9008-0.4096-15.9744-13.312-34.2016-29.2864-34.2016H276.6848c-28.4672 0-51.6096-23.1424-51.6096-51.6096V218.5216c0-27.2384 22.1184-49.5616 49.5616-49.5616H733.184c24.9856 0 45.2608 20.2752 45.2608 45.2608V483.328c0 16.384 13.5168 30.5152 29.9008 30.1056 15.9744-0.4096 28.672-13.312 28.672-29.2864V215.2448c1.024-33.1776-21.504-108.9536-104.6528-107.52z m0 0" p-id="9205" fill="#1296db"></path><path d="M877.9776 717.0048h-115.712V598.016c0-16.384-12.0832-30.5152-28.4672-30.1056-15.9744 0.4096-27.2384 13.312-27.2384 29.2864V716.8h-120.4224c-16.384 0-30.5152 12.0832-30.1056 28.4672 0.4096 15.9744 13.312 27.2384 29.2864 27.2384H706.56v113.4592c0 16.384 12.0832 30.5152 28.4672 30.1056 15.9744-0.4096 27.2384-13.312 27.2384-29.2864v-114.2784h114.8928c16.384 0 30.5152-12.0832 30.1056-28.4672-0.4096-15.7696-13.312-27.0336-29.2864-27.0336z m0 0" p-id="9206" fill="#1296db"></path></svg>