<svg width="1024" height="1024" xmlns="http://www.w3.org/2000/svg" p-id="18072" version="1.1" class="icon" t="1644378863988">
 <defs>
  <style type="text/css"/>
 </defs>
 <g>
  <title>background</title>
  <rect fill="none" id="canvas_background" height="549" width="658" y="-1" x="-1"/>
 </g>
 <g>
  <title>Layer 1</title>
  <g transform="rotate(180 502.3999938964843,515.2000122070312) " id="svg_3">
   <path id="svg_1" fill="#1296db" p-id="18073" d="m883.2,934.4l-51.2,0l0,-102.4c0,-57.6 -25.6,-115.2 -70.4,-160l-76.8,-76.8l-38.4,-38.4l-12.8,-6.4s-6.4,0 -6.4,-6.4c-6.4,-6.4 -12.8,-19.2 -12.8,-32s6.4,-25.6 12.8,-32c0,0 0,-6.4 6.4,-6.4l19.2,-12.8l6.4,-12.8l25.6,-25.6l83.2,-76.8c44.8,-38.4 64,-96 64,-153.6l0,-102.4l51.2,0c25.6,0 51.2,-19.2 51.2,-38.4s-19.2,-38.4 -51.2,-38.4l-755.2,0c-25.6,0 -51.2,19.2 -51.2,38.4s19.2,38.4 51.2,38.4l51.2,0l0,96c0,57.6 25.6,115.2 70.4,160l32,32l83.2,83.2l6.4,6.4l12.8,6.4l6.4,6.4c6.4,6.4 12.8,19.2 12.8,32l0,12.8c0,6.4 -6.4,19.2 -12.8,25.6l-6.4,0l-12.8,12.8l-89.6,83.2l-32,32c-44.8,38.4 -70.4,96 -70.4,160l0,102.4l-57.6,0c-25.6,0 -51.2,19.2 -51.2,38.4s19.2,38.4 51.2,38.4l761.6,0c25.6,0 51.2,-19.2 51.2,-38.4c0,-25.6 -19.2,-44.8 -51.2,-44.8zm-627.2,-102.4c0,-38.4 19.2,-76.8 44.8,-102.4l89.6,-89.6l70.4,-64c6.4,-12.8 6.4,-19.2 12.8,-32c0,-12.8 6.4,-19.2 6.4,-32l0,-32c0,-6.4 0,-12.8 -6.4,-19.2l0,-6.4c-12.8,-6.4 -12.8,-6.4 -19.2,-12.8l-70.4,-70.4l-83.2,-83.2c-32,-25.6 -44.8,-64 -44.8,-102.4l0,-96l505.6,0l0,96c0,38.4 -19.2,76.8 -44.8,102.4l-102.4,96l-38.4,38.4l-6.4,6.4l-6.4,6.4c-6.4,12.8 -12.8,32 -12.8,44.8l0,25.6c0,12.8 0,19.2 6.4,32c0,19.2 6.4,44.8 19.2,57.6l32,32l102.4,102.4c32,25.6 44.8,64 44.8,102.4l0,102.4l-499.2,0l0,-102.4z"/>
   <path id="svg_2" fill="#1296db" p-id="18074" d="m544,684.8c-12.8,-12.8 -38.4,-12.8 -57.6,0l-96,83.2c-19.2,12.8 -32,38.4 -32,64l0,44.8l307.2,0l0,-44.8c0,-19.2 -12.8,-44.8 -32,-64l-89.6,-83.2z"/>
  </g>
 </g>
</svg>