<?xml version="1.0" standalone="no"?><!DOCTYPE svg PUBLIC "-//W3C//DTD SVG 1.1//EN" "http://www.w3.org/Graphics/SVG/1.1/DTD/svg11.dtd"><svg t="1644465739990" class="icon" viewBox="0 0 1024 1024" version="1.1" xmlns="http://www.w3.org/2000/svg" p-id="25874" xmlns:xlink="http://www.w3.org/1999/xlink" width="200" height="200"><defs><style type="text/css"></style></defs><path d="M335.36 440.32c38.4 0 71.68-30.72 71.68-71.68 0-38.4-30.72-71.68-71.68-71.68-38.4 0-71.68 30.72-71.68 71.68 2.56 40.96 33.28 71.68 71.68 71.68z m0 0M652.8 396.8L445.44 691.2 337.92 540.16 158.72 793.6h704L652.8 396.8z m0 0" p-id="25875"></path><path d="M934.4 107.52H89.6c-20.48 0-35.84 15.36-35.84 35.84V883.2c0 20.48 15.36 35.84 35.84 35.84h844.8c20.48 0 35.84-15.36 35.84-35.84V143.36c0-20.48-15.36-35.84-35.84-35.84z m-35.84 739.84H125.44V176.64h775.68v670.72h-2.56z m0 0" p-id="25876"></path></svg>