<?xml version="1.0" standalone="no"?><!DOCTYPE svg PUBLIC "-//W3C//DTD SVG 1.1//EN" "http://www.w3.org/Graphics/SVG/1.1/DTD/svg11.dtd"><svg t="1637151734583" class="icon" viewBox="0 0 1058 1024" version="1.1" xmlns="http://www.w3.org/2000/svg" p-id="5190" xmlns:xlink="http://www.w3.org/1999/xlink" width="206.640625" height="200"><defs><style type="text/css"></style></defs><path d="M532.900267 846.894545c-36.163232 0-64.581818 28.418586-64.581819 64.581819 0 34.870303 28.418586 63.288889 64.581819 63.288889 36.163232 0 64.581818-28.418586 64.581818-63.288889 0-36.176162-29.711515-64.581818-64.581818-64.581819zM132.480065 224.310303c-41.334949 24.539798-81.37697 52.958384-118.833132 85.242828-16.795152 14.209293-18.088081 40.04202-3.878788 56.837172 14.209293 16.795152 40.04202 18.088081 56.837172 3.878788 38.749091-33.590303 80.08404-61.99596 124.004849-86.548687l-58.130101-59.410101z m911.915959 85.242828C901.023095 185.561212 718.901075 117.100606 529.021479 117.100606c-81.37697 0-162.753939 12.916364-238.959192 37.456162l64.581818 65.874747c56.837172-14.209293 116.247273-21.953939 175.670303-21.953939 170.498586 0 334.545455 60.70303 462.416162 171.791515 7.757576 6.451717 16.795152 10.330505 25.832727 10.330505 11.623434 0 21.953939-5.171717 31.004444-14.209293 12.916364-16.795152 11.623434-42.627879-5.171717-56.837172z m-738.831515 90.427475c-52.958384 23.246869-103.330909 54.251313-147.251717 94.293333-16.782222 14.209293-18.075152 40.04202-2.585859 56.837172 15.502222 16.782222 40.04202 18.088081 56.837172 2.585859 45.213737-40.04202 98.172121-71.046465 153.703434-91.707475l-60.70303-62.008889z m217.005253-43.920808c-11.623434 0-23.246869 0-34.870303 1.292929l80.08404 81.37697c98.172121 9.050505 191.172525 50.385455 266.084848 116.247273 7.744646 6.464646 16.795152 10.330505 27.125657 10.330505 11.623434 0 21.953939-5.171717 29.711515-12.916364 15.502222-16.782222 12.916364-42.614949-2.585858-56.837172-100.75798-90.414545-231.214545-139.494141-365.549899-139.494141z m65.874747 333.252525l-87.828687-89.121616c-68.460606 5.171717-134.335354 32.297374-186.000808 80.08404-16.795152 15.502222-18.075152 40.04202-2.585858 56.837172 15.502222 16.782222 40.04202 18.075152 56.837171 2.585859 42.614949-38.749091 96.879192-59.410101 153.703435-59.410101 23.246869-0.025859 45.200808 2.56 65.874747 9.024646zM115.697842 57.677576c-10.330505-10.330505-25.832727-10.330505-34.883232-1.29293-9.037576 9.050505-10.330505 24.539798 0 33.590303l702.668283 715.584647c5.171717 5.171717 11.623434 7.757576 16.782222 7.757576 6.464646 0 11.623434-2.585859 16.795152-6.464647 9.037576-9.037576 10.330505-24.539798 0-33.577373L115.697842 57.677576z m0 0" p-id="5191" fill="#d81e06"></path></svg>