<?xml version="1.0" standalone="no"?><!DOCTYPE svg PUBLIC "-//W3C//DTD SVG 1.1//EN" "http://www.w3.org/Graphics/SVG/1.1/DTD/svg11.dtd"><svg t="1644463268223" class="icon" viewBox="0 0 1024 1024" version="1.1" xmlns="http://www.w3.org/2000/svg" p-id="10580" xmlns:xlink="http://www.w3.org/1999/xlink" width="200" height="200"><defs><style type="text/css"></style></defs><path d="M388.40875244 295.72644043h123.5813601c8.53802467 0 15.80053734 2.99102759 21.85180617 9.06701684 6.03149391 5.97216773 9.06701684 13.2890625 9.06701684 21.83697462 0 8.55285621-3.03552222 15.76098609-9.06207276 21.83697533-6.05621362 5.97711182-13.31872559 9.06701684-21.85675025 9.06701684H388.40380836c-8.52813721 0-15.80053734-3.08990502-21.8468628-9.06701684-6.04632545-6.07598853-9.06207276-13.28411842-9.06207275-21.83697533s3.01574731-15.86480689 9.06207275-21.83697462c6.04632545-6.08093262 13.31872559-9.06701684 21.85180688-9.06701684m0 123.51214575H635.59619164c8.52813721 0 15.80053734 3.08990502 21.85180617 9.06701685 6.03149391 6.07598853 9.05712867 13.38793922 9.05712938 21.94079613 0 8.44409203-3.02563477 15.76098609-9.05218529 21.83697462-6.05621362 5.97216773-13.32861305 9.06701684-21.85675026 9.06701685h-247.19238328c-8.52813721 0-15.80053734-3.09484839-21.8468628-9.06701685-6.04632545-6.08093262-9.06207276-13.3928833-9.06207275-21.83697462 0-8.55285621 3.01574731-15.86975098 9.06207275-21.94079613 6.04632545-5.97711182 13.31872559-9.06701684 21.85180688-9.06701685m339.8450315-216.21917676H295.68688989c-8.53802467 0-15.79559326 2.98608422-21.85180688 9.06207276-6.03149391 5.97711182-9.06701684 13.2890625-9.06701684 21.8419187v556.15319824c0 8.55285621 3.04046631 15.86975098 9.06207275 21.84191871 6.06115699 6.07598853 13.31872559 9.16589356 21.85675097 9.16589355h432.57183814c8.52813721 0 15.83020043-3.08990502 21.83697533-9.16589355 6.08093262-5.97711182 9.09667992-13.2890625 9.09667922-21.84191871V233.92340088c0-8.55285621-3.01574731-15.86975098-9.09667922-21.84191871-6.0067749-6.07598853-13.30883813-9.06207276-21.83697534-9.06207275M388.40875244 542.84960938h247.19238257c8.52813721 0 15.80053734 2.99102759 21.85180689 9.06701684 6.03149391 6.08093262 9.05712867 13.3928833 9.05712866 21.83697462 0 8.55285621-3.02563477 15.86975098-9.05218458 21.84191942-6.05621362 6.07598853-13.32861305 9.16589356-21.85675097 9.16589356h-247.19238257c-8.52813721 0-15.80053734-3.08990502-21.84686279-9.16589356C360.52050758 589.61840844 357.50476098 582.30151367 357.50476098 573.74865747c0-8.44409203 3.01574731-15.76098609 9.06207276-21.83697534 6.04632545-6.08093262 13.31872559-9.06701684 21.85180616-9.06701684m0 123.61596728H635.59619164c8.52813721 0 15.80053734 3.08990502 21.85180617 9.06701611 6.03149391 6.07598853 9.05712867 13.38793922 9.05712938 21.83697535 0 8.55285621-3.02563477 15.86480689-9.05218529 21.83697533-6.05621362 6.08093262-13.32861305 9.16589356-21.85675026 9.16589355h-247.19238328c-8.52813721 0-15.80053734-3.08990502-21.8468628-9.16589355-6.04632545-5.97216773-9.06207276-13.2890625-9.06207275-21.83697533 0-8.4490354 3.01574731-15.76098609 9.06207275-21.83697535 6.04632545-5.97711182 13.31872559-9.06701684 21.85180688-9.06701611M295.7066648 141.21142578h432.5866704c25.56463599 0 47.4362185 8.96319604 65.5307002 27.09228492C811.94323754 186.43280029 820.99047875 208.26977563 820.99047875 233.92340088v556.15319824c0 25.54980445-9.0521853 47.49060058-27.16149926 65.51586938-18.09448242 18.1290896-39.96606422 27.19610572-65.53070092 27.19610572h-432.58666969c-25.57452416 0-47.43127442-9.06701684-65.53070091-27.19116234C212.06170654 837.56225563 203.00952125 815.6214602 203.00952125 790.07165503V233.92340088C203.00952125 208.26977563 212.06170654 186.43280029 230.18090797 168.3037107 248.27539039 150.17462182 270.13708472 141.21142578 295.71160888 141.21142578" p-id="10581"></path></svg>