<?xml version="1.0" standalone="no"?><!DOCTYPE svg PUBLIC "-//W3C//DTD SVG 1.1//EN" "http://www.w3.org/Graphics/SVG/1.1/DTD/svg11.dtd"><svg t="1637053953265" class="icon" viewBox="0 0 1024 1024" version="1.1" xmlns="http://www.w3.org/2000/svg" p-id="1456" xmlns:xlink="http://www.w3.org/1999/xlink" width="200" height="200"><defs><style type="text/css"></style></defs><path d="M576.8 824.3c-102 20.7-212-8-290.1-86C170.3 622 162.4 440.4 262.8 316.2v58.9c0 17.5 14.4 31.8 31.9 31.8 17.6 0 31.8-14.3 31.9-31.8V247.7c0-9.6-3.2-17.5-9.6-22.3-6.4-6.4-14.4-9.6-22.3-9.6H167.2c-17.6 0-31.8 14.3-31.9 31.9 0 17.5 14.4 31.9 31.9 31.9h44.6C92.2 427.7 103.4 644.3 240.5 782.9c95.6 95.6 227.9 129 350.7 103.5 4.8-1.6 11.2-4.8 14.4-8 12.7-12.7 12.7-31.9 0-44.6-6.5-9.5-19.2-12.7-28.8-9.5z m280.6-78h-43c116.4-149.7 106.8-366.4-31.9-504.9C693.2 152.2 572 117.1 455.7 133c-8 0-14.4 3.2-20.7 9.6-12.7 12.7-12.7 31.8 0 44.6 8 8 19.1 11.1 30.3 8 95.6-14.3 197.7 15.9 271 89.2 116.4 116.3 124.3 297.9 23.9 422.1v-58.9c0-17.5-14.4-31.9-31.9-31.9-17.6 0-31.8 14.3-31.9 31.9V775c0 9.6 3.2 17.5 9.6 22.3 6.4 6.4 14.4 9.6 22.3 9.6h127.5c17.6 0 31.8-14.3 31.9-31.9 0-17.6-12.8-28.7-30.3-28.7z m0 0" fill="#1296db" p-id="1457"></path></svg>