<?xml version="1.0" standalone="no"?><!DOCTYPE svg PUBLIC "-//W3C//DTD SVG 1.1//EN" "http://www.w3.org/Graphics/SVG/1.1/DTD/svg11.dtd"><svg t="1634994824670" class="icon" viewBox="0 0 1024 1024" version="1.1" xmlns="http://www.w3.org/2000/svg" p-id="2858" xmlns:xlink="http://www.w3.org/1999/xlink" width="200" height="200"><defs><style type="text/css"></style></defs><path d="M502.714987 58.258904l-126.531056-54.617723a52.797131 52.797131 0 0 0-41.873587 96.855428A447.865322 447.865322 0 0 0 392.02307 946.707184a61.535967 61.535967 0 0 0 13.83649 1.820591 52.797131 52.797131 0 0 0 13.65443-103.773672 342.453118 342.453118 0 0 1-31.678278-651.771485l-8.374718 19.480321a52.615072 52.615072 0 0 0 27.855039 69.182448 51.522718 51.522718 0 0 0 20.572675 4.369418A52.797131 52.797131 0 0 0 476.498481 254.882703L530.205907 127.441352a52.979191 52.979191 0 0 0-27.49092-69.182448zM962.960326 509.765407A448.775617 448.775617 0 0 0 643.992829 68.090094a52.797131 52.797131 0 1 0-30.403866 101.042786A342.635177 342.635177 0 0 1 674.578753 801.059925a52.615072 52.615072 0 0 0-92.30395-50.612422l-71.913335 117.246043a52.433013 52.433013 0 0 0 17.295612 72.82363l117.063985 72.823629a52.797131 52.797131 0 1 0 54.617722-89.755123l-16.021198-10.013249A448.593558 448.593558 0 0 0 962.960326 509.765407z" p-id="2859"></path></svg>