<?xml version="1.0" standalone="no"?><!DOCTYPE svg PUBLIC "-//W3C//DTD SVG 1.1//EN" "http://www.w3.org/Graphics/SVG/1.1/DTD/svg11.dtd"><svg t="1635165906170" class="icon" viewBox="0 0 1024 1024" version="1.1" xmlns="http://www.w3.org/2000/svg" p-id="12561" xmlns:xlink="http://www.w3.org/1999/xlink" width="200" height="200"><defs><style type="text/css"></style></defs><path d="M186 90h-55.455C108.22 90 90 108.22 90 130.545v760.91C90 913.78 108.22 932 130.545 932h760.91C913.78 932 932 913.78 932 891.455V342.632L679.407 90H650v352.27c0 38.435-31.32 69.73-69.832 69.73H255.786C217.32 512 186 480.705 186 442.27V90z m705.455 930h-760.91C59.618 1020 2 962.382 2 891.455v-760.91C2 59.618 59.618 2 130.545 2h567.09a44 44 0 0 1 31.114 12.89l278.366 278.408a44 44 0 0 1 12.885 31.11v567.047C1020 962.382 962.382 1020 891.455 1020zM278.8 419.273h278.4V94.727H278.8v324.546z" p-id="12562"></path></svg>