<?xml version="1.0" standalone="no"?><!DOCTYPE svg PUBLIC "-//W3C//DTD SVG 1.1//EN" "http://www.w3.org/Graphics/SVG/1.1/DTD/svg11.dtd"><svg t="1636968413457" class="icon" viewBox="0 0 1024 1024" version="1.1" xmlns="http://www.w3.org/2000/svg" p-id="2071" xmlns:xlink="http://www.w3.org/1999/xlink" width="200" height="200"><defs><style type="text/css"></style></defs><path d="M947.968 305.28l0.064 202.88a275.392 275.392 0 0 0-185.408-71.424 275.584 275.584 0 0 0-276.032 275.2c0 57.856 17.92 111.488 48.512 155.84H89.216a64 64 0 0 1-64-64V305.28h922.752zM257.536 377.6a103.68 103.68 0 0 0-49.536 194.816 127.808 127.808 0 0 0-92.928 123.072v85.76H400v-85.76a128 128 0 0 0-92.992-123.136A103.68 103.68 0 0 0 257.536 377.6z m626.432-282.112a64 64 0 0 1 64 64v80.064H25.216V159.488a64 64 0 0 1 64-64h794.752z" p-id="2072"></path><path d="M767.552 502.848a205.44 205.44 0 0 1 205.76 205.184 203.52 203.52 0 0 1-34.24 113.024l70.4 66.24a30.336 30.336 0 0 1 0 42.88l-15.168 15.104a30.528 30.528 0 0 1-42.944 0l-70.464-66.24a205.44 205.44 0 0 1-319.04-171.008 205.44 205.44 0 0 1 205.696-205.184z m0 82.112a123.264 123.264 0 0 0-123.456 123.072c0 67.968 55.296 123.072 123.456 123.072 19.008 0 36.8-4.608 52.928-12.288 25.472-12.16 46.016-32.64 58.176-58.048a121.6 121.6 0 0 0 12.352-52.736 123.264 123.264 0 0 0-123.456-123.072z" p-id="2073"></path></svg>