<?xml version="1.0" standalone="no"?><!DOCTYPE svg PUBLIC "-//W3C//DTD SVG 1.1//EN" "http://www.w3.org/Graphics/SVG/1.1/DTD/svg11.dtd"><svg t="1635148713666" class="icon" viewBox="0 0 1024 1024" version="1.1" xmlns="http://www.w3.org/2000/svg" p-id="8790" xmlns:xlink="http://www.w3.org/1999/xlink" width="200" height="200"><defs><style type="text/css"></style></defs><path d="M819.2 0H204.8a136.533333 136.533333 0 0 0-136.533333 136.533333v750.933334a136.533333 136.533333 0 0 0 136.533333 136.533333h614.4a136.533333 136.533333 0 0 0 136.533333-136.533333V136.533333a136.533333 136.533333 0 0 0-136.533333-136.533333z m68.266667 887.466667a68.266667 68.266667 0 0 1-68.266667 68.266666H204.8a68.266667 68.266667 0 0 1-68.266667-68.266666V136.533333a68.266667 68.266667 0 0 1 68.266667-68.266666h614.4a68.266667 68.266667 0 0 1 68.266667 68.266666z" fill="" p-id="8791"></path><path d="M735.914667 273.066667h-307.2a34.133333 34.133333 0 0 0 0 68.266666h307.2a34.133333 34.133333 0 0 0 0-68.266666zM735.914667 477.866667h-307.2a34.133333 34.133333 0 0 0 0 68.266666h307.2a34.133333 34.133333 0 0 0 0-68.266666zM735.914667 682.666667h-307.2a34.133333 34.133333 0 0 0 0 68.266666h307.2a34.133333 34.133333 0 0 0 0-68.266666zM313.344 273.066667h-25.258667a34.133333 34.133333 0 0 0 0 68.266666h25.941334a34.133333 34.133333 0 0 0 0-68.266666zM313.344 477.866667h-25.258667a34.133333 34.133333 0 0 0 0 68.266666h25.941334a34.133333 34.133333 0 0 0 0-68.266666zM313.344 682.666667h-25.258667a34.133333 34.133333 0 0 0 0 68.266666h25.941334a34.133333 34.133333 0 0 0 0-68.266666z" fill="" p-id="8792"></path></svg>